<?xml version="1.0" encoding="UTF-8" standalone="no"?>
<!DOCTYPE svg PUBLIC "-//W3C//DTD SVG 1.1//EN"
 "http://www.w3.org/Graphics/SVG/1.1/DTD/svg11.dtd">
<!-- Generated by graphviz version 2.47.0 (20210316.0004)
 -->
<!-- Title: dependencies Pages: 1 -->
<svg width="782pt" height="284pt"
 viewBox="0.00 0.00 782.00 284.00" xmlns="http://www.w3.org/2000/svg" xmlns:xlink="http://www.w3.org/1999/xlink">
<g id="graph0" class="graph" transform="scale(1 1) rotate(0) translate(4 280)">
<title>dependencies</title>
<polygon fill="white" stroke="transparent" points="-4,4 -4,-280 778,-280 778,4 -4,4"/>
<text text-anchor="start" x="366.01" y="-42.4" font-family="Times-12" font-weight="bold" font-size="14.00">Legend</text>
<polygon fill="#ffffb3" stroke="transparent" points="153,-10 153,-30 173,-30 173,-10 153,-10"/>
<text text-anchor="start" x="176.63" y="-15.4" font-family="Times-12" font-size="14.00"> &#160;Declarations</text>
<polygon fill="#8dd3c7" stroke="transparent" points="266,-10 266,-30 286,-30 286,-10 266,-10"/>
<text text-anchor="start" x="289.73" y="-15.4" font-family="Times-12" font-size="14.00"> &#160;Module</text>
<polygon fill="#80b1d3" stroke="transparent" points="352,-10 352,-30 372,-30 372,-10 352,-10"/>
<text text-anchor="start" x="375.78" y="-15.4" font-family="Times-12" font-size="14.00"> &#160;Bootstrap</text>
<polygon fill="#fdb462" stroke="transparent" points="449,-10 449,-30 469,-30 469,-10 449,-10"/>
<text text-anchor="start" x="472.67" y="-15.4" font-family="Times-12" font-size="14.00"> &#160;Providers</text>
<polygon fill="#fb8072" stroke="transparent" points="545,-10 545,-30 565,-30 565,-10 545,-10"/>
<text text-anchor="start" x="568.73" y="-15.4" font-family="Times-12" font-size="14.00"> &#160;Exports</text>
<g id="clust1" class="cluster">
<title>cluster_AuthModule</title>
<polygon fill="none" stroke="black" stroke-dasharray="1,5" points="8,-70 8,-268 766,-268 766,-70 8,-70"/>
</g>
<g id="clust6" class="cluster">
<title>cluster_AuthModule_providers</title>
<polygon fill="none" stroke="black" points="132,-78 132,-130 758,-130 758,-78 132,-78"/>
</g>
<g id="clust3" class="cluster">
<title>cluster_AuthModule_imports</title>
<polygon fill="none" stroke="black" points="16,-78 16,-130 124,-130 124,-78 16,-78"/>
</g>
<g id="clust4" class="cluster">
<title>cluster_AuthModule_exports</title>
<polygon fill="none" stroke="black" points="225,-208 225,-260 493,-260 493,-208 225,-208"/>
</g>
<!-- UsersModule -->
<g id="node1" class="node">
<title>UsersModule</title>
<polygon fill="#8dd3c7" stroke="black" points="115.92,-122 112.92,-126 91.92,-126 88.92,-122 24.08,-122 24.08,-86 115.92,-86 115.92,-122"/>
<text text-anchor="middle" x="70" y="-99.8" font-family="Times,serif" font-size="14.00">UsersModule</text>
</g>
<!-- AuthModule -->
<g id="node2" class="node">
<title>AuthModule</title>
<polygon fill="#8dd3c7" stroke="black" points="388.55,-187 385.55,-191 364.55,-191 361.55,-187 301.45,-187 301.45,-151 388.55,-151 388.55,-187"/>
<text text-anchor="middle" x="345" y="-164.8" font-family="Times,serif" font-size="14.00">AuthModule</text>
</g>
<!-- UsersModule&#45;&gt;AuthModule -->
<g id="edge1" class="edge">
<title>UsersModule&#45;&gt;AuthModule</title>
<path fill="none" stroke="black" d="M70,-122.28C70,-143.32 70,-175 70,-175 70,-175 291.43,-175 291.43,-175"/>
<polygon fill="black" stroke="black" points="291.43,-178.5 301.43,-175 291.43,-171.5 291.43,-178.5"/>
</g>
<!-- AccessContorlService  -->
<g id="node3" class="node">
<title>AccessContorlService </title>
<polygon fill="#fb8072" stroke="black" points="484.9,-252 341.1,-252 341.1,-216 484.9,-216 484.9,-252"/>
<text text-anchor="middle" x="413" y="-229.8" font-family="Times,serif" font-size="14.00">AccessContorlService </text>
</g>
<!-- AuthModule&#45;&gt;AccessContorlService  -->
<g id="edge2" class="edge">
<title>AuthModule&#45;&gt;AccessContorlService </title>
<path fill="none" stroke="black" stroke-dasharray="5,2" d="M364.91,-187.11C364.91,-187.11 364.91,-205.99 364.91,-205.99"/>
<polygon fill="black" stroke="black" points="361.41,-205.99 364.91,-215.99 368.41,-205.99 361.41,-205.99"/>
</g>
<!-- AuthService  -->
<g id="node4" class="node">
<title>AuthService </title>
<polygon fill="#fb8072" stroke="black" points="322.98,-252 233.02,-252 233.02,-216 322.98,-216 322.98,-252"/>
<text text-anchor="middle" x="278" y="-229.8" font-family="Times,serif" font-size="14.00">AuthService </text>
</g>
<!-- AuthModule&#45;&gt;AuthService  -->
<g id="edge3" class="edge">
<title>AuthModule&#45;&gt;AuthService </title>
<path fill="none" stroke="black" stroke-dasharray="5,2" d="M311.98,-187.11C311.98,-187.11 311.98,-205.99 311.98,-205.99"/>
<polygon fill="black" stroke="black" points="308.48,-205.99 311.98,-215.99 315.48,-205.99 308.48,-205.99"/>
</g>
<!-- AccessContorlService -->
<g id="node5" class="node">
<title>AccessContorlService</title>
<ellipse fill="#fdb462" stroke="black" cx="653" cy="-104" rx="96.68" ry="18"/>
<text text-anchor="middle" x="653" y="-99.8" font-family="Times,serif" font-size="14.00">AccessContorlService</text>
</g>
<!-- AccessContorlService&#45;&gt;AuthModule -->
<g id="edge4" class="edge">
<title>AccessContorlService&#45;&gt;AuthModule</title>
<path fill="none" stroke="black" d="M653,-122.28C653,-143.32 653,-175 653,-175 653,-175 398.8,-175 398.8,-175"/>
<polygon fill="black" stroke="black" points="398.8,-171.5 388.8,-175 398.8,-178.5 398.8,-171.5"/>
</g>
<!-- AuthService -->
<g id="node6" class="node">
<title>AuthService</title>
<ellipse fill="#fdb462" stroke="black" cx="479" cy="-104" rx="59.11" ry="18"/>
<text text-anchor="middle" x="479" y="-99.8" font-family="Times,serif" font-size="14.00">AuthService</text>
</g>
<!-- AuthService&#45;&gt;AuthModule -->
<g id="edge5" class="edge">
<title>AuthService&#45;&gt;AuthModule</title>
<path fill="none" stroke="black" d="M452.32,-120.12C452.32,-137.59 452.32,-163 452.32,-163 452.32,-163 398.65,-163 398.65,-163"/>
<polygon fill="black" stroke="black" points="398.65,-159.5 388.65,-163 398.65,-166.5 398.65,-159.5"/>
</g>
<!-- JwtStrategy -->
<g id="node7" class="node">
<title>JwtStrategy</title>
<ellipse fill="#fdb462" stroke="black" cx="345" cy="-104" rx="56.76" ry="18"/>
<text text-anchor="middle" x="345" y="-99.8" font-family="Times,serif" font-size="14.00">JwtStrategy</text>
</g>
<!-- JwtStrategy&#45;&gt;AuthModule -->
<g id="edge6" class="edge">
<title>JwtStrategy&#45;&gt;AuthModule</title>
<path fill="none" stroke="black" d="M345,-122.11C345,-122.11 345,-140.99 345,-140.99"/>
<polygon fill="black" stroke="black" points="341.5,-140.99 345,-150.99 348.5,-140.99 341.5,-140.99"/>
</g>
<!-- LocalStrategy -->
<g id="node8" class="node">
<title>LocalStrategy</title>
<ellipse fill="#fdb462" stroke="black" cx="205" cy="-104" rx="65.41" ry="18"/>
<text text-anchor="middle" x="205" y="-99.8" font-family="Times,serif" font-size="14.00">LocalStrategy</text>
</g>
<!-- LocalStrategy&#45;&gt;AuthModule -->
<g id="edge7" class="edge">
<title>LocalStrategy&#45;&gt;AuthModule</title>
<path fill="none" stroke="black" d="M251.73,-116.8C251.73,-134.15 251.73,-163 251.73,-163 251.73,-163 291.37,-163 291.37,-163"/>
<polygon fill="black" stroke="black" points="291.37,-166.5 301.37,-163 291.37,-159.5 291.37,-166.5"/>
</g>
</g>
</svg>
