<?xml version="1.0" encoding="UTF-8" standalone="no"?>
<!DOCTYPE svg PUBLIC "-//W3C//DTD SVG 1.1//EN"
 "http://www.w3.org/Graphics/SVG/1.1/DTD/svg11.dtd">
<!-- Generated by graphviz version 2.47.0 (20210316.0004)
 -->
<!-- Title: dependencies Pages: 1 -->
<svg width="782pt" height="284pt"
 viewBox="0.00 0.00 782.00 284.00" xmlns="http://www.w3.org/2000/svg" xmlns:xlink="http://www.w3.org/1999/xlink">
<g id="graph0" class="graph" transform="scale(1 1) rotate(0) translate(4 280)">
<title>dependencies</title>
<polygon fill="white" stroke="transparent" points="-4,4 -4,-280 778,-280 778,4 -4,4"/>
<text text-anchor="start" x="366.01" y="-42.4" font-family="Times-12" font-weight="bold" font-size="14.00">Legend</text>
<polygon fill="#ffffb3" stroke="transparent" points="153,-10 153,-30 173,-30 173,-10 153,-10"/>
<text text-anchor="start" x="176.63" y="-15.4" font-family="Times-12" font-size="14.00"> &#160;Declarations</text>
<polygon fill="#8dd3c7" stroke="transparent" points="266,-10 266,-30 286,-30 286,-10 266,-10"/>
<text text-anchor="start" x="289.73" y="-15.4" font-family="Times-12" font-size="14.00"> &#160;Module</text>
<polygon fill="#80b1d3" stroke="transparent" points="352,-10 352,-30 372,-30 372,-10 352,-10"/>
<text text-anchor="start" x="375.78" y="-15.4" font-family="Times-12" font-size="14.00"> &#160;Bootstrap</text>
<polygon fill="#fdb462" stroke="transparent" points="449,-10 449,-30 469,-30 469,-10 449,-10"/>
<text text-anchor="start" x="472.67" y="-15.4" font-family="Times-12" font-size="14.00"> &#160;Providers</text>
<polygon fill="#fb8072" stroke="transparent" points="545,-10 545,-30 565,-30 565,-10 545,-10"/>
<text text-anchor="start" x="568.73" y="-15.4" font-family="Times-12" font-size="14.00"> &#160;Exports</text>
<g id="clust1" class="cluster">
<title>cluster_AuthModule</title>
<polygon fill="none" stroke="black" stroke-dasharray="1,5" points="8,-70 8,-268 766,-268 766,-70 8,-70"/>
</g>
<g id="clust3" class="cluster">
<title>cluster_AuthModule_imports</title>
<polygon fill="none" stroke="black" points="650,-78 650,-130 758,-130 758,-78 650,-78"/>
</g>
<g id="clust4" class="cluster">
<title>cluster_AuthModule_exports</title>
<polygon fill="none" stroke="black" points="243,-208 243,-260 511,-260 511,-208 243,-208"/>
</g>
<g id="clust6" class="cluster">
<title>cluster_AuthModule_providers</title>
<polygon fill="none" stroke="black" points="16,-78 16,-130 642,-130 642,-78 16,-78"/>
</g>
<!-- UsersModule -->
<g id="node1" class="node">
<title>UsersModule</title>
<polygon fill="#8dd3c7" stroke="black" points="749.92,-122 746.92,-126 725.92,-126 722.92,-122 658.08,-122 658.08,-86 749.92,-86 749.92,-122"/>
<text text-anchor="middle" x="704" y="-99.8" font-family="Times,serif" font-size="14.00">UsersModule</text>
</g>
<!-- AuthModule -->
<g id="node2" class="node">
<title>AuthModule</title>
<polygon fill="#8dd3c7" stroke="black" points="406.55,-187 403.55,-191 382.55,-191 379.55,-187 319.45,-187 319.45,-151 406.55,-151 406.55,-187"/>
<text text-anchor="middle" x="363" y="-164.8" font-family="Times,serif" font-size="14.00">AuthModule</text>
</g>
<!-- UsersModule&#45;&gt;AuthModule -->
<g id="edge1" class="edge">
<title>UsersModule&#45;&gt;AuthModule</title>
<path fill="none" stroke="black" d="M704,-122.28C704,-143.32 704,-175 704,-175 704,-175 416.88,-175 416.88,-175"/>
<polygon fill="black" stroke="black" points="416.88,-171.5 406.88,-175 416.88,-178.5 416.88,-171.5"/>
</g>
<!-- AccessContorlService  -->
<g id="node3" class="node">
<title>AccessContorlService </title>
<polygon fill="#fb8072" stroke="black" points="502.9,-252 359.1,-252 359.1,-216 502.9,-216 502.9,-252"/>
<text text-anchor="middle" x="431" y="-229.8" font-family="Times,serif" font-size="14.00">AccessContorlService </text>
</g>
<!-- AuthModule&#45;&gt;AccessContorlService  -->
<g id="edge2" class="edge">
<title>AuthModule&#45;&gt;AccessContorlService </title>
<path fill="none" stroke="black" stroke-dasharray="5,2" d="M382.91,-187.11C382.91,-187.11 382.91,-205.99 382.91,-205.99"/>
<polygon fill="black" stroke="black" points="379.41,-205.99 382.91,-215.99 386.41,-205.99 379.41,-205.99"/>
</g>
<!-- AuthService  -->
<g id="node4" class="node">
<title>AuthService </title>
<polygon fill="#fb8072" stroke="black" points="340.98,-252 251.02,-252 251.02,-216 340.98,-216 340.98,-252"/>
<text text-anchor="middle" x="296" y="-229.8" font-family="Times,serif" font-size="14.00">AuthService </text>
</g>
<!-- AuthModule&#45;&gt;AuthService  -->
<g id="edge3" class="edge">
<title>AuthModule&#45;&gt;AuthService </title>
<path fill="none" stroke="black" stroke-dasharray="5,2" d="M329.98,-187.11C329.98,-187.11 329.98,-205.99 329.98,-205.99"/>
<polygon fill="black" stroke="black" points="326.48,-205.99 329.98,-215.99 333.48,-205.99 326.48,-205.99"/>
</g>
<!-- AccessContorlService -->
<g id="node5" class="node">
<title>AccessContorlService</title>
<ellipse fill="#fdb462" stroke="black" cx="537" cy="-104" rx="96.68" ry="18"/>
<text text-anchor="middle" x="537" y="-99.8" font-family="Times,serif" font-size="14.00">AccessContorlService</text>
</g>
<!-- AccessContorlService&#45;&gt;AuthModule -->
<g id="edge4" class="edge">
<title>AccessContorlService&#45;&gt;AuthModule</title>
<path fill="none" stroke="black" d="M471.55,-117.39C471.55,-134.8 471.55,-163 471.55,-163 471.55,-163 416.84,-163 416.84,-163"/>
<polygon fill="black" stroke="black" points="416.84,-159.5 406.84,-163 416.84,-166.5 416.84,-159.5"/>
</g>
<!-- AuthService -->
<g id="node6" class="node">
<title>AuthService</title>
<ellipse fill="#fdb462" stroke="black" cx="363" cy="-104" rx="59.11" ry="18"/>
<text text-anchor="middle" x="363" y="-99.8" font-family="Times,serif" font-size="14.00">AuthService</text>
</g>
<!-- AuthService&#45;&gt;AuthModule -->
<g id="edge5" class="edge">
<title>AuthService&#45;&gt;AuthModule</title>
<path fill="none" stroke="black" d="M363,-122.11C363,-122.11 363,-140.99 363,-140.99"/>
<polygon fill="black" stroke="black" points="359.5,-140.99 363,-150.99 366.5,-140.99 359.5,-140.99"/>
</g>
<!-- JwtStrategy -->
<g id="node7" class="node">
<title>JwtStrategy</title>
<ellipse fill="#fdb462" stroke="black" cx="229" cy="-104" rx="56.76" ry="18"/>
<text text-anchor="middle" x="229" y="-99.8" font-family="Times,serif" font-size="14.00">JwtStrategy</text>
</g>
<!-- JwtStrategy&#45;&gt;AuthModule -->
<g id="edge6" class="edge">
<title>JwtStrategy&#45;&gt;AuthModule</title>
<path fill="none" stroke="black" d="M268.45,-117.09C268.45,-134.48 268.45,-163 268.45,-163 268.45,-163 309.32,-163 309.32,-163"/>
<polygon fill="black" stroke="black" points="309.32,-166.5 319.32,-163 309.32,-159.5 309.32,-166.5"/>
</g>
<!-- LocalStrategy -->
<g id="node8" class="node">
<title>LocalStrategy</title>
<ellipse fill="#fdb462" stroke="black" cx="89" cy="-104" rx="65.41" ry="18"/>
<text text-anchor="middle" x="89" y="-99.8" font-family="Times,serif" font-size="14.00">LocalStrategy</text>
</g>
<!-- LocalStrategy&#45;&gt;AuthModule -->
<g id="edge7" class="edge">
<title>LocalStrategy&#45;&gt;AuthModule</title>
<path fill="none" stroke="black" d="M89,-122.28C89,-143.32 89,-175 89,-175 89,-175 309.28,-175 309.28,-175"/>
<polygon fill="black" stroke="black" points="309.28,-178.5 319.28,-175 309.28,-171.5 309.28,-178.5"/>
</g>
</g>
</svg>
