<?xml version="1.0" encoding="UTF-8" standalone="no"?>
<!DOCTYPE svg PUBLIC "-//W3C//DTD SVG 1.1//EN"
 "http://www.w3.org/Graphics/SVG/1.1/DTD/svg11.dtd">
<!-- Generated by graphviz version 2.47.0 (20210316.0004)
 -->
<!-- Title: dependencies Pages: 1 -->
<svg width="504pt" height="284pt"
 viewBox="0.00 0.00 504.00 284.00" xmlns="http://www.w3.org/2000/svg" xmlns:xlink="http://www.w3.org/1999/xlink">
<g id="graph0" class="graph" transform="scale(1 1) rotate(0) translate(4 280)">
<title>dependencies</title>
<polygon fill="white" stroke="transparent" points="-4,4 -4,-280 500,-280 500,4 -4,4"/>
<text text-anchor="start" x="227.01" y="-42.4" font-family="Times-12" font-weight="bold" font-size="14.00">Legend</text>
<polygon fill="#ffffb3" stroke="transparent" points="14,-10 14,-30 34,-30 34,-10 14,-10"/>
<text text-anchor="start" x="37.63" y="-15.4" font-family="Times-12" font-size="14.00"> &#160;Declarations</text>
<polygon fill="#8dd3c7" stroke="transparent" points="127,-10 127,-30 147,-30 147,-10 127,-10"/>
<text text-anchor="start" x="150.73" y="-15.4" font-family="Times-12" font-size="14.00"> &#160;Module</text>
<polygon fill="#80b1d3" stroke="transparent" points="213,-10 213,-30 233,-30 233,-10 213,-10"/>
<text text-anchor="start" x="236.78" y="-15.4" font-family="Times-12" font-size="14.00"> &#160;Bootstrap</text>
<polygon fill="#fdb462" stroke="transparent" points="310,-10 310,-30 330,-30 330,-10 310,-10"/>
<text text-anchor="start" x="333.67" y="-15.4" font-family="Times-12" font-size="14.00"> &#160;Providers</text>
<polygon fill="#fb8072" stroke="transparent" points="406,-10 406,-30 426,-30 426,-10 406,-10"/>
<text text-anchor="start" x="429.73" y="-15.4" font-family="Times-12" font-size="14.00"> &#160;Exports</text>
<g id="clust1" class="cluster">
<title>cluster_TodosModule</title>
<polygon fill="none" stroke="black" stroke-dasharray="1,5" points="112,-70 112,-268 384,-268 384,-70 112,-70"/>
</g>
<g id="clust6" class="cluster">
<title>cluster_TodosModule_providers</title>
<polygon fill="none" stroke="black" points="232,-78 232,-130 376,-130 376,-78 232,-78"/>
</g>
<g id="clust3" class="cluster">
<title>cluster_TodosModule_imports</title>
<polygon fill="none" stroke="black" points="120,-78 120,-130 224,-130 224,-78 120,-78"/>
</g>
<g id="clust4" class="cluster">
<title>cluster_TodosModule_exports</title>
<polygon fill="none" stroke="black" points="184,-208 184,-260 296,-260 296,-208 184,-208"/>
</g>
<!-- AuthModule -->
<g id="node1" class="node">
<title>AuthModule</title>
<polygon fill="#8dd3c7" stroke="black" points="215.55,-122 212.55,-126 191.55,-126 188.55,-122 128.45,-122 128.45,-86 215.55,-86 215.55,-122"/>
<text text-anchor="middle" x="172" y="-99.8" font-family="Times,serif" font-size="14.00">AuthModule</text>
</g>
<!-- TodosModule -->
<g id="node2" class="node">
<title>TodosModule</title>
<polygon fill="#8dd3c7" stroke="black" points="287.05,-187 284.05,-191 263.05,-191 260.05,-187 192.95,-187 192.95,-151 287.05,-151 287.05,-187"/>
<text text-anchor="middle" x="240" y="-164.8" font-family="Times,serif" font-size="14.00">TodosModule</text>
</g>
<!-- AuthModule&#45;&gt;TodosModule -->
<g id="edge1" class="edge">
<title>AuthModule&#45;&gt;TodosModule</title>
<path fill="none" stroke="black" d="M204.25,-122.11C204.25,-122.11 204.25,-140.99 204.25,-140.99"/>
<polygon fill="black" stroke="black" points="200.75,-140.99 204.25,-150.99 207.75,-140.99 200.75,-140.99"/>
</g>
<!-- TodosService  -->
<g id="node3" class="node">
<title>TodosService </title>
<polygon fill="#fb8072" stroke="black" points="288.48,-252 191.52,-252 191.52,-216 288.48,-216 288.48,-252"/>
<text text-anchor="middle" x="240" y="-229.8" font-family="Times,serif" font-size="14.00">TodosService </text>
</g>
<!-- TodosModule&#45;&gt;TodosService  -->
<g id="edge2" class="edge">
<title>TodosModule&#45;&gt;TodosService </title>
<path fill="none" stroke="black" stroke-dasharray="5,2" d="M240,-187.11C240,-187.11 240,-205.99 240,-205.99"/>
<polygon fill="black" stroke="black" points="236.5,-205.99 240,-215.99 243.5,-205.99 236.5,-205.99"/>
</g>
<!-- TodosService -->
<g id="node4" class="node">
<title>TodosService</title>
<ellipse fill="#fdb462" stroke="black" cx="304" cy="-104" rx="64.26" ry="18"/>
<text text-anchor="middle" x="304" y="-99.8" font-family="Times,serif" font-size="14.00">TodosService</text>
</g>
<!-- TodosService&#45;&gt;TodosModule -->
<g id="edge3" class="edge">
<title>TodosService&#45;&gt;TodosModule</title>
<path fill="none" stroke="black" d="M263.57,-118.1C263.57,-118.1 263.57,-140.72 263.57,-140.72"/>
<polygon fill="black" stroke="black" points="260.07,-140.72 263.57,-150.72 267.07,-140.72 260.07,-140.72"/>
</g>
</g>
</svg>
