<?xml version="1.0" encoding="UTF-8" standalone="no"?>
<!DOCTYPE svg PUBLIC "-//W3C//DTD SVG 1.1//EN"
 "http://www.w3.org/Graphics/SVG/1.1/DTD/svg11.dtd">
<!-- Generated by graphviz version 2.47.0 (20210316.0004)
 -->
<!-- Title: dependencies Pages: 1 -->
<svg width="504pt" height="211pt"
 viewBox="0.00 0.00 504.00 211.00" xmlns="http://www.w3.org/2000/svg" xmlns:xlink="http://www.w3.org/1999/xlink">
<g id="graph0" class="graph" transform="scale(1 1) rotate(0) translate(4 207)">
<title>dependencies</title>
<polygon fill="white" stroke="transparent" points="-4,4 -4,-207 500,-207 500,4 -4,4"/>
<text text-anchor="start" x="227.01" y="-42.4" font-family="Times-12" font-weight="bold" font-size="14.00">Legend</text>
<polygon fill="#ffffb3" stroke="transparent" points="14,-10 14,-30 34,-30 34,-10 14,-10"/>
<text text-anchor="start" x="37.63" y="-15.4" font-family="Times-12" font-size="14.00"> &#160;Declarations</text>
<polygon fill="#8dd3c7" stroke="transparent" points="127,-10 127,-30 147,-30 147,-10 127,-10"/>
<text text-anchor="start" x="150.73" y="-15.4" font-family="Times-12" font-size="14.00"> &#160;Module</text>
<polygon fill="#80b1d3" stroke="transparent" points="213,-10 213,-30 233,-30 233,-10 213,-10"/>
<text text-anchor="start" x="236.78" y="-15.4" font-family="Times-12" font-size="14.00"> &#160;Bootstrap</text>
<polygon fill="#fdb462" stroke="transparent" points="310,-10 310,-30 330,-30 330,-10 310,-10"/>
<text text-anchor="start" x="333.67" y="-15.4" font-family="Times-12" font-size="14.00"> &#160;Providers</text>
<polygon fill="#fb8072" stroke="transparent" points="406,-10 406,-30 426,-30 426,-10 406,-10"/>
<text text-anchor="start" x="429.73" y="-15.4" font-family="Times-12" font-size="14.00"> &#160;Exports</text>
<g id="clust1" class="cluster">
<title>cluster_AdminModule</title>
<polygon fill="none" stroke="black" stroke-dasharray="1,5" points="77,-70 77,-195 419,-195 419,-70 77,-70"/>
</g>
<g id="clust3" class="cluster">
<title>cluster_AdminModule_imports</title>
<polygon fill="none" stroke="black" points="85,-78 85,-130 411,-130 411,-78 85,-78"/>
</g>
<!-- AuthModule -->
<g id="node1" class="node">
<title>AuthModule</title>
<polygon fill="#8dd3c7" stroke="black" points="402.55,-122 399.55,-126 378.55,-126 375.55,-122 315.45,-122 315.45,-86 402.55,-86 402.55,-122"/>
<text text-anchor="middle" x="359" y="-99.8" font-family="Times,serif" font-size="14.00">AuthModule</text>
</g>
<!-- AdminModule -->
<g id="node4" class="node">
<title>AdminModule</title>
<polygon fill="#8dd3c7" stroke="black" points="299.44,-187 296.44,-191 275.44,-191 272.44,-187 200.56,-187 200.56,-151 299.44,-151 299.44,-187"/>
<text text-anchor="middle" x="250" y="-164.8" font-family="Times,serif" font-size="14.00">AdminModule</text>
</g>
<!-- AuthModule&#45;&gt;AdminModule -->
<g id="edge1" class="edge">
<title>AuthModule&#45;&gt;AdminModule</title>
<path fill="none" stroke="black" d="M359,-122.11C359,-141.34 359,-169 359,-169 359,-169 309.4,-169 309.4,-169"/>
<polygon fill="black" stroke="black" points="309.4,-165.5 299.4,-169 309.4,-172.5 309.4,-165.5"/>
</g>
<!-- TodosModule -->
<g id="node2" class="node">
<title>TodosModule</title>
<polygon fill="#8dd3c7" stroke="black" points="297.05,-122 294.05,-126 273.05,-126 270.05,-122 202.95,-122 202.95,-86 297.05,-86 297.05,-122"/>
<text text-anchor="middle" x="250" y="-99.8" font-family="Times,serif" font-size="14.00">TodosModule</text>
</g>
<!-- TodosModule&#45;&gt;AdminModule -->
<g id="edge2" class="edge">
<title>TodosModule&#45;&gt;AdminModule</title>
<path fill="none" stroke="black" d="M250,-122.11C250,-122.11 250,-140.99 250,-140.99"/>
<polygon fill="black" stroke="black" points="246.5,-140.99 250,-150.99 253.5,-140.99 246.5,-140.99"/>
</g>
<!-- UsersModule -->
<g id="node3" class="node">
<title>UsersModule</title>
<polygon fill="#8dd3c7" stroke="black" points="184.92,-122 181.92,-126 160.92,-126 157.92,-122 93.08,-122 93.08,-86 184.92,-86 184.92,-122"/>
<text text-anchor="middle" x="139" y="-99.8" font-family="Times,serif" font-size="14.00">UsersModule</text>
</g>
<!-- UsersModule&#45;&gt;AdminModule -->
<g id="edge3" class="edge">
<title>UsersModule&#45;&gt;AdminModule</title>
<path fill="none" stroke="black" d="M139,-122.11C139,-141.34 139,-169 139,-169 139,-169 190.67,-169 190.67,-169"/>
<polygon fill="black" stroke="black" points="190.67,-172.5 200.67,-169 190.67,-165.5 190.67,-172.5"/>
</g>
</g>
</svg>
