<?xml version="1.0" encoding="UTF-8" standalone="no"?>
<!DOCTYPE svg PUBLIC "-//W3C//DTD SVG 1.1//EN"
 "http://www.w3.org/Graphics/SVG/1.1/DTD/svg11.dtd">
<!-- Generated by graphviz version 2.47.0 (20210316.0004)
 -->
<!-- Title: dependencies Pages: 1 -->
<svg width="789pt" height="211pt"
 viewBox="0.00 0.00 789.00 211.00" xmlns="http://www.w3.org/2000/svg" xmlns:xlink="http://www.w3.org/1999/xlink">
<g id="graph0" class="graph" transform="scale(1 1) rotate(0) translate(4 207)">
<title>dependencies</title>
<polygon fill="white" stroke="transparent" points="-4,4 -4,-207 785,-207 785,4 -4,4"/>
<text text-anchor="start" x="369.51" y="-42.4" font-family="Times-12" font-weight="bold" font-size="14.00">Legend</text>
<polygon fill="#ffffb3" stroke="transparent" points="156.5,-10 156.5,-30 176.5,-30 176.5,-10 156.5,-10"/>
<text text-anchor="start" x="180.13" y="-15.4" font-family="Times-12" font-size="14.00"> &#160;Declarations</text>
<polygon fill="#8dd3c7" stroke="transparent" points="269.5,-10 269.5,-30 289.5,-30 289.5,-10 269.5,-10"/>
<text text-anchor="start" x="293.23" y="-15.4" font-family="Times-12" font-size="14.00"> &#160;Module</text>
<polygon fill="#80b1d3" stroke="transparent" points="355.5,-10 355.5,-30 375.5,-30 375.5,-10 355.5,-10"/>
<text text-anchor="start" x="379.28" y="-15.4" font-family="Times-12" font-size="14.00"> &#160;Bootstrap</text>
<polygon fill="#fdb462" stroke="transparent" points="452.5,-10 452.5,-30 472.5,-30 472.5,-10 452.5,-10"/>
<text text-anchor="start" x="476.17" y="-15.4" font-family="Times-12" font-size="14.00"> &#160;Providers</text>
<polygon fill="#fb8072" stroke="transparent" points="548.5,-10 548.5,-30 568.5,-30 568.5,-10 548.5,-10"/>
<text text-anchor="start" x="572.23" y="-15.4" font-family="Times-12" font-size="14.00"> &#160;Exports</text>
<g id="clust1" class="cluster">
<title>cluster_AppModule</title>
<polygon fill="none" stroke="black" stroke-dasharray="1,5" points="8,-70 8,-195 773,-195 773,-70 8,-70"/>
</g>
<g id="clust3" class="cluster">
<title>cluster_AppModule_imports</title>
<polygon fill="none" stroke="black" points="16,-78 16,-130 765,-130 765,-78 16,-78"/>
</g>
<!-- AppConfigModule -->
<g id="node1" class="node">
<title>AppConfigModule</title>
<polygon fill="#8dd3c7" stroke="black" points="757.05,-122 754.05,-126 733.05,-126 730.05,-122 634.95,-122 634.95,-86 757.05,-86 757.05,-122"/>
<text text-anchor="middle" x="696" y="-99.8" font-family="Times,serif" font-size="14.00">AppConfigModule</text>
</g>
<!-- AppModule -->
<g id="node7" class="node">
<title>AppModule</title>
<polygon fill="#8dd3c7" stroke="black" points="406.66,-187 403.66,-191 382.66,-191 379.66,-187 323.34,-187 323.34,-151 406.66,-151 406.66,-187"/>
<text text-anchor="middle" x="365" y="-164.8" font-family="Times,serif" font-size="14.00">AppModule</text>
</g>
<!-- AppConfigModule&#45;&gt;AppModule -->
<g id="edge1" class="edge">
<title>AppConfigModule&#45;&gt;AppModule</title>
<path fill="none" stroke="black" d="M696,-122.28C696,-143.32 696,-175 696,-175 696,-175 416.92,-175 416.92,-175"/>
<polygon fill="black" stroke="black" points="416.92,-171.5 406.92,-175 416.92,-178.5 416.92,-171.5"/>
</g>
<!-- AuthModule -->
<g id="node2" class="node">
<title>AuthModule</title>
<polygon fill="#8dd3c7" stroke="black" points="616.55,-122 613.55,-126 592.55,-126 589.55,-122 529.45,-122 529.45,-86 616.55,-86 616.55,-122"/>
<text text-anchor="middle" x="573" y="-99.8" font-family="Times,serif" font-size="14.00">AuthModule</text>
</g>
<!-- AuthModule&#45;&gt;AppModule -->
<g id="edge2" class="edge">
<title>AuthModule&#45;&gt;AppModule</title>
<path fill="none" stroke="black" d="M573,-122.02C573,-139.37 573,-163 573,-163 573,-163 417.09,-163 417.09,-163"/>
<polygon fill="black" stroke="black" points="417.09,-159.5 407.09,-163 417.09,-166.5 417.09,-159.5"/>
</g>
<!-- DatabaseConfigModule -->
<g id="node3" class="node">
<title>DatabaseConfigModule</title>
<polygon fill="#8dd3c7" stroke="black" points="510.74,-122 507.74,-126 486.74,-126 483.74,-122 361.26,-122 361.26,-86 510.74,-86 510.74,-122"/>
<text text-anchor="middle" x="436" y="-99.8" font-family="Times,serif" font-size="14.00">DatabaseConfigModule</text>
</g>
<!-- DatabaseConfigModule&#45;&gt;AppModule -->
<g id="edge3" class="edge">
<title>DatabaseConfigModule&#45;&gt;AppModule</title>
<path fill="none" stroke="black" d="M383.98,-122.11C383.98,-122.11 383.98,-140.99 383.98,-140.99"/>
<polygon fill="black" stroke="black" points="380.48,-140.99 383.98,-150.99 387.48,-140.99 380.48,-140.99"/>
</g>
<!-- HealthModule -->
<g id="node4" class="node">
<title>HealthModule</title>
<polygon fill="#8dd3c7" stroke="black" points="343.37,-122 340.37,-126 319.37,-126 316.37,-122 246.63,-122 246.63,-86 343.37,-86 343.37,-122"/>
<text text-anchor="middle" x="295" y="-99.8" font-family="Times,serif" font-size="14.00">HealthModule</text>
</g>
<!-- HealthModule&#45;&gt;AppModule -->
<g id="edge4" class="edge">
<title>HealthModule&#45;&gt;AppModule</title>
<path fill="none" stroke="black" d="M333.3,-122.11C333.3,-122.11 333.3,-140.99 333.3,-140.99"/>
<polygon fill="black" stroke="black" points="329.8,-140.99 333.3,-150.99 336.8,-140.99 329.8,-140.99"/>
</g>
<!-- TodosModule -->
<g id="node5" class="node">
<title>TodosModule</title>
<polygon fill="#8dd3c7" stroke="black" points="228.05,-122 225.05,-126 204.05,-126 201.05,-122 133.95,-122 133.95,-86 228.05,-86 228.05,-122"/>
<text text-anchor="middle" x="181" y="-99.8" font-family="Times,serif" font-size="14.00">TodosModule</text>
</g>
<!-- TodosModule&#45;&gt;AppModule -->
<g id="edge5" class="edge">
<title>TodosModule&#45;&gt;AppModule</title>
<path fill="none" stroke="black" d="M181,-122.02C181,-139.37 181,-163 181,-163 181,-163 313.25,-163 313.25,-163"/>
<polygon fill="black" stroke="black" points="313.25,-166.5 323.25,-163 313.25,-159.5 313.25,-166.5"/>
</g>
<!-- UsersModule -->
<g id="node6" class="node">
<title>UsersModule</title>
<polygon fill="#8dd3c7" stroke="black" points="115.92,-122 112.92,-126 91.92,-126 88.92,-122 24.08,-122 24.08,-86 115.92,-86 115.92,-122"/>
<text text-anchor="middle" x="70" y="-99.8" font-family="Times,serif" font-size="14.00">UsersModule</text>
</g>
<!-- UsersModule&#45;&gt;AppModule -->
<g id="edge6" class="edge">
<title>UsersModule&#45;&gt;AppModule</title>
<path fill="none" stroke="black" d="M70,-122.28C70,-143.32 70,-175 70,-175 70,-175 313.05,-175 313.05,-175"/>
<polygon fill="black" stroke="black" points="313.05,-178.5 323.05,-175 313.05,-171.5 313.05,-178.5"/>
</g>
</g>
</svg>
