<?xml version="1.0" encoding="UTF-8" standalone="no"?>
<!DOCTYPE svg PUBLIC "-//W3C//DTD SVG 1.1//EN"
 "http://www.w3.org/Graphics/SVG/1.1/DTD/svg11.dtd">
<!-- Generated by graphviz version 2.47.0 (20210316.0004)
 -->
<!-- Title: dependencies Pages: 1 -->
<svg width="905pt" height="211pt"
 viewBox="0.00 0.00 905.00 211.00" xmlns="http://www.w3.org/2000/svg" xmlns:xlink="http://www.w3.org/1999/xlink">
<g id="graph0" class="graph" transform="scale(1 1) rotate(0) translate(4 207)">
<title>dependencies</title>
<polygon fill="white" stroke="transparent" points="-4,4 -4,-207 901,-207 901,4 -4,4"/>
<text text-anchor="start" x="427.51" y="-42.4" font-family="Times-12" font-weight="bold" font-size="14.00">Legend</text>
<polygon fill="#ffffb3" stroke="transparent" points="214.5,-10 214.5,-30 234.5,-30 234.5,-10 214.5,-10"/>
<text text-anchor="start" x="238.13" y="-15.4" font-family="Times-12" font-size="14.00"> &#160;Declarations</text>
<polygon fill="#8dd3c7" stroke="transparent" points="327.5,-10 327.5,-30 347.5,-30 347.5,-10 327.5,-10"/>
<text text-anchor="start" x="351.23" y="-15.4" font-family="Times-12" font-size="14.00"> &#160;Module</text>
<polygon fill="#80b1d3" stroke="transparent" points="413.5,-10 413.5,-30 433.5,-30 433.5,-10 413.5,-10"/>
<text text-anchor="start" x="437.28" y="-15.4" font-family="Times-12" font-size="14.00"> &#160;Bootstrap</text>
<polygon fill="#fdb462" stroke="transparent" points="510.5,-10 510.5,-30 530.5,-30 530.5,-10 510.5,-10"/>
<text text-anchor="start" x="534.17" y="-15.4" font-family="Times-12" font-size="14.00"> &#160;Providers</text>
<polygon fill="#fb8072" stroke="transparent" points="606.5,-10 606.5,-30 626.5,-30 626.5,-10 606.5,-10"/>
<text text-anchor="start" x="630.23" y="-15.4" font-family="Times-12" font-size="14.00"> &#160;Exports</text>
<g id="clust1" class="cluster">
<title>cluster_AppModule</title>
<polygon fill="none" stroke="black" stroke-dasharray="1,5" points="8,-70 8,-195 889,-195 889,-70 8,-70"/>
</g>
<g id="clust3" class="cluster">
<title>cluster_AppModule_imports</title>
<polygon fill="none" stroke="black" points="16,-78 16,-130 881,-130 881,-78 16,-78"/>
</g>
<!-- AdminModule -->
<g id="node1" class="node">
<title>AdminModule</title>
<polygon fill="#8dd3c7" stroke="black" points="873.44,-122 870.44,-126 849.44,-126 846.44,-122 774.56,-122 774.56,-86 873.44,-86 873.44,-122"/>
<text text-anchor="middle" x="824" y="-99.8" font-family="Times,serif" font-size="14.00">AdminModule</text>
</g>
<!-- AppModule -->
<g id="node8" class="node">
<title>AppModule</title>
<polygon fill="#8dd3c7" stroke="black" points="477.66,-187 474.66,-191 453.66,-191 450.66,-187 394.34,-187 394.34,-151 477.66,-151 477.66,-187"/>
<text text-anchor="middle" x="436" y="-164.8" font-family="Times,serif" font-size="14.00">AppModule</text>
</g>
<!-- AdminModule&#45;&gt;AppModule -->
<g id="edge1" class="edge">
<title>AdminModule&#45;&gt;AppModule</title>
<path fill="none" stroke="black" d="M824,-122.29C824,-144.21 824,-178 824,-178 824,-178 487.89,-178 487.89,-178"/>
<polygon fill="black" stroke="black" points="487.89,-174.5 477.89,-178 487.89,-181.5 487.89,-174.5"/>
</g>
<!-- AppConfigModule -->
<g id="node2" class="node">
<title>AppConfigModule</title>
<polygon fill="#8dd3c7" stroke="black" points="757.05,-122 754.05,-126 733.05,-126 730.05,-122 634.95,-122 634.95,-86 757.05,-86 757.05,-122"/>
<text text-anchor="middle" x="696" y="-99.8" font-family="Times,serif" font-size="14.00">AppConfigModule</text>
</g>
<!-- AppConfigModule&#45;&gt;AppModule -->
<g id="edge2" class="edge">
<title>AppConfigModule&#45;&gt;AppModule</title>
<path fill="none" stroke="black" d="M696,-122.11C696,-141.34 696,-169 696,-169 696,-169 487.77,-169 487.77,-169"/>
<polygon fill="black" stroke="black" points="487.77,-165.5 477.77,-169 487.77,-172.5 487.77,-165.5"/>
</g>
<!-- AuthModule -->
<g id="node3" class="node">
<title>AuthModule</title>
<polygon fill="#8dd3c7" stroke="black" points="616.55,-122 613.55,-126 592.55,-126 589.55,-122 529.45,-122 529.45,-86 616.55,-86 616.55,-122"/>
<text text-anchor="middle" x="573" y="-99.8" font-family="Times,serif" font-size="14.00">AuthModule</text>
</g>
<!-- AuthModule&#45;&gt;AppModule -->
<g id="edge3" class="edge">
<title>AuthModule&#45;&gt;AppModule</title>
<path fill="none" stroke="black" d="M573,-122.03C573,-138.4 573,-160 573,-160 573,-160 487.85,-160 487.85,-160"/>
<polygon fill="black" stroke="black" points="487.85,-156.5 477.85,-160 487.85,-163.5 487.85,-156.5"/>
</g>
<!-- DatabaseConfigModule -->
<g id="node4" class="node">
<title>DatabaseConfigModule</title>
<polygon fill="#8dd3c7" stroke="black" points="510.74,-122 507.74,-126 486.74,-126 483.74,-122 361.26,-122 361.26,-86 510.74,-86 510.74,-122"/>
<text text-anchor="middle" x="436" y="-99.8" font-family="Times,serif" font-size="14.00">DatabaseConfigModule</text>
</g>
<!-- DatabaseConfigModule&#45;&gt;AppModule -->
<g id="edge4" class="edge">
<title>DatabaseConfigModule&#45;&gt;AppModule</title>
<path fill="none" stroke="black" d="M436,-122.11C436,-122.11 436,-140.99 436,-140.99"/>
<polygon fill="black" stroke="black" points="432.5,-140.99 436,-150.99 439.5,-140.99 432.5,-140.99"/>
</g>
<!-- HealthModule -->
<g id="node5" class="node">
<title>HealthModule</title>
<polygon fill="#8dd3c7" stroke="black" points="343.37,-122 340.37,-126 319.37,-126 316.37,-122 246.63,-122 246.63,-86 343.37,-86 343.37,-122"/>
<text text-anchor="middle" x="295" y="-99.8" font-family="Times,serif" font-size="14.00">HealthModule</text>
</g>
<!-- HealthModule&#45;&gt;AppModule -->
<g id="edge5" class="edge">
<title>HealthModule&#45;&gt;AppModule</title>
<path fill="none" stroke="black" d="M295,-122.03C295,-138.4 295,-160 295,-160 295,-160 384.08,-160 384.08,-160"/>
<polygon fill="black" stroke="black" points="384.08,-163.5 394.08,-160 384.08,-156.5 384.08,-163.5"/>
</g>
<!-- TodosModule -->
<g id="node6" class="node">
<title>TodosModule</title>
<polygon fill="#8dd3c7" stroke="black" points="228.05,-122 225.05,-126 204.05,-126 201.05,-122 133.95,-122 133.95,-86 228.05,-86 228.05,-122"/>
<text text-anchor="middle" x="181" y="-99.8" font-family="Times,serif" font-size="14.00">TodosModule</text>
</g>
<!-- TodosModule&#45;&gt;AppModule -->
<g id="edge6" class="edge">
<title>TodosModule&#45;&gt;AppModule</title>
<path fill="none" stroke="black" d="M181,-122.11C181,-141.34 181,-169 181,-169 181,-169 384.18,-169 384.18,-169"/>
<polygon fill="black" stroke="black" points="384.18,-172.5 394.18,-169 384.18,-165.5 384.18,-172.5"/>
</g>
<!-- UsersModule -->
<g id="node7" class="node">
<title>UsersModule</title>
<polygon fill="#8dd3c7" stroke="black" points="115.92,-122 112.92,-126 91.92,-126 88.92,-122 24.08,-122 24.08,-86 115.92,-86 115.92,-122"/>
<text text-anchor="middle" x="70" y="-99.8" font-family="Times,serif" font-size="14.00">UsersModule</text>
</g>
<!-- UsersModule&#45;&gt;AppModule -->
<g id="edge7" class="edge">
<title>UsersModule&#45;&gt;AppModule</title>
<path fill="none" stroke="black" d="M70,-122.29C70,-144.21 70,-178 70,-178 70,-178 384.02,-178 384.02,-178"/>
<polygon fill="black" stroke="black" points="384.02,-181.5 394.02,-178 384.02,-174.5 384.02,-181.5"/>
</g>
</g>
</svg>
