<?xml version="1.0" encoding="UTF-8" standalone="no"?>
<!DOCTYPE svg PUBLIC "-//W3C//DTD SVG 1.1//EN"
 "http://www.w3.org/Graphics/SVG/1.1/DTD/svg11.dtd">
<!-- Generated by graphviz version 2.47.0 (20210316.0004)
 -->
<!-- Title: dependencies Pages: 1 -->
<svg width="1785pt" height="363pt"
 viewBox="0.00 0.00 1785.00 363.00" xmlns="http://www.w3.org/2000/svg" xmlns:xlink="http://www.w3.org/1999/xlink">
<g id="graph0" class="graph" transform="scale(1 1) rotate(0) translate(4 359)">
<title>dependencies</title>
<polygon fill="white" stroke="transparent" points="-4,4 -4,-359 1781,-359 1781,4 -4,4"/>
<text text-anchor="start" x="867.51" y="-42.4" font-family="Times-12" font-weight="bold" font-size="14.00">Legend</text>
<polygon fill="#ffffb3" stroke="transparent" points="654.5,-10 654.5,-30 674.5,-30 674.5,-10 654.5,-10"/>
<text text-anchor="start" x="678.13" y="-15.4" font-family="Times-12" font-size="14.00"> &#160;Declarations</text>
<polygon fill="#8dd3c7" stroke="transparent" points="767.5,-10 767.5,-30 787.5,-30 787.5,-10 767.5,-10"/>
<text text-anchor="start" x="791.23" y="-15.4" font-family="Times-12" font-size="14.00"> &#160;Module</text>
<polygon fill="#80b1d3" stroke="transparent" points="853.5,-10 853.5,-30 873.5,-30 873.5,-10 853.5,-10"/>
<text text-anchor="start" x="877.28" y="-15.4" font-family="Times-12" font-size="14.00"> &#160;Bootstrap</text>
<polygon fill="#fdb462" stroke="transparent" points="950.5,-10 950.5,-30 970.5,-30 970.5,-10 950.5,-10"/>
<text text-anchor="start" x="974.17" y="-15.4" font-family="Times-12" font-size="14.00"> &#160;Providers</text>
<polygon fill="#fb8072" stroke="transparent" points="1046.5,-10 1046.5,-30 1066.5,-30 1066.5,-10 1046.5,-10"/>
<text text-anchor="start" x="1070.23" y="-15.4" font-family="Times-12" font-size="14.00"> &#160;Exports</text>
<g id="clust7" class="cluster">
<title>cluster_AppModule</title>
<polygon fill="none" stroke="black" stroke-dasharray="1,5" points="934,-70 934,-339 1481,-339 1481,-70 934,-70"/>
</g>
<g id="clust9" class="cluster">
<title>cluster_AppModule_imports</title>
<polygon fill="none" stroke="black" points="942,-78 942,-271 1473,-271 1473,-78 942,-78"/>
</g>
<g id="clust13" class="cluster">
<title>cluster_AuthModule</title>
<polygon fill="none" stroke="black" stroke-dasharray="1,5" points="8,-70 8,-138 926,-138 926,-70 8,-70"/>
</g>
<g id="clust16" class="cluster">
<title>cluster_AuthModule_exports</title>
<polygon fill="none" stroke="black" points="650,-78 650,-130 918,-130 918,-78 650,-78"/>
</g>
<g id="clust18" class="cluster">
<title>cluster_AuthModule_providers</title>
<polygon fill="none" stroke="black" points="16,-78 16,-130 642,-130 642,-78 16,-78"/>
</g>
<g id="clust31" class="cluster">
<title>cluster_TodosModule</title>
<polygon fill="none" stroke="black" stroke-dasharray="1,5" points="1489,-279 1489,-347 1769,-347 1769,-279 1489,-279"/>
</g>
<g id="clust34" class="cluster">
<title>cluster_TodosModule_exports</title>
<polygon fill="none" stroke="black" points="1649,-287 1649,-339 1761,-339 1761,-287 1649,-287"/>
</g>
<g id="clust36" class="cluster">
<title>cluster_TodosModule_providers</title>
<polygon fill="none" stroke="black" points="1497,-287 1497,-339 1641,-339 1641,-287 1497,-287"/>
</g>
<g id="clust37" class="cluster">
<title>cluster_UsersModule</title>
<polygon fill="none" stroke="black" stroke-dasharray="1,5" points="1489,-146 1489,-214 1763,-214 1763,-146 1489,-146"/>
</g>
<g id="clust40" class="cluster">
<title>cluster_UsersModule_exports</title>
<polygon fill="none" stroke="black" points="1645,-154 1645,-206 1755,-206 1755,-154 1645,-154"/>
</g>
<g id="clust42" class="cluster">
<title>cluster_UsersModule_providers</title>
<polygon fill="none" stroke="black" points="1497,-154 1497,-206 1637,-206 1637,-154 1497,-154"/>
</g>
<!-- AppConfigModule -->
<g id="node1" class="node">
<title>AppConfigModule</title>
<polygon fill="#8dd3c7" stroke="black" points="1187.05,-122 1184.05,-126 1163.05,-126 1160.05,-122 1064.95,-122 1064.95,-86 1187.05,-86 1187.05,-122"/>
<text text-anchor="middle" x="1126" y="-99.8" font-family="Times,serif" font-size="14.00">AppConfigModule</text>
</g>
<!-- AppModule -->
<g id="node7" class="node">
<title>AppModule</title>
<polygon fill="#8dd3c7" stroke="black" points="1248.66,-331 1245.66,-335 1224.66,-335 1221.66,-331 1165.34,-331 1165.34,-295 1248.66,-295 1248.66,-331"/>
<text text-anchor="middle" x="1207" y="-308.8" font-family="Times,serif" font-size="14.00">AppModule</text>
</g>
<!-- AppConfigModule&#45;&gt;AppModule -->
<g id="edge1" class="edge">
<title>AppConfigModule&#45;&gt;AppModule</title>
<path fill="none" stroke="black" d="M1184.27,-122.18C1184.27,-122.18 1184.27,-284.71 1184.27,-284.71"/>
<polygon fill="black" stroke="black" points="1180.77,-284.71 1184.27,-294.71 1187.77,-284.71 1180.77,-284.71"/>
</g>
<!-- AuthModule -->
<g id="node2" class="node">
<title>AuthModule</title>
<polygon fill="#8dd3c7" stroke="black" points="1037.55,-198 1034.55,-202 1013.55,-202 1010.55,-198 950.45,-198 950.45,-162 1037.55,-162 1037.55,-198"/>
<text text-anchor="middle" x="994" y="-175.8" font-family="Times,serif" font-size="14.00">AuthModule</text>
</g>
<!-- TodosModule -->
<g id="node5" class="node">
<title>TodosModule</title>
<polygon fill="#8dd3c7" stroke="black" points="1178.05,-263 1175.05,-267 1154.05,-267 1151.05,-263 1083.95,-263 1083.95,-227 1178.05,-227 1178.05,-263"/>
<text text-anchor="middle" x="1131" y="-240.8" font-family="Times,serif" font-size="14.00">TodosModule</text>
</g>
<!-- AuthModule&#45;&gt;TodosModule -->
<g id="edge14" class="edge">
<title>AuthModule&#45;&gt;TodosModule</title>
<path fill="none" stroke="black" d="M994,-198.11C994,-217.34 994,-245 994,-245 994,-245 1073.85,-245 1073.85,-245"/>
<polygon fill="black" stroke="black" points="1073.85,-248.5 1083.85,-245 1073.85,-241.5 1073.85,-248.5"/>
</g>
<!-- AuthModule&#45;&gt;AppModule -->
<g id="edge2" class="edge">
<title>AuthModule&#45;&gt;AppModule</title>
<path fill="none" stroke="black" d="M1037.91,-180C1093.26,-180 1181.27,-180 1181.27,-180 1181.27,-180 1181.27,-284.79 1181.27,-284.79"/>
<polygon fill="black" stroke="black" points="1177.77,-284.79 1181.27,-294.79 1184.77,-284.79 1177.77,-284.79"/>
</g>
<!-- AccessContorlService  -->
<g id="node8" class="node">
<title>AccessContorlService </title>
<polygon fill="#fb8072" stroke="black" points="909.9,-122 766.1,-122 766.1,-86 909.9,-86 909.9,-122"/>
<text text-anchor="middle" x="838" y="-99.8" font-family="Times,serif" font-size="14.00">AccessContorlService </text>
</g>
<!-- AuthModule&#45;&gt;AccessContorlService  -->
<g id="edge8" class="edge">
<title>AuthModule&#45;&gt;AccessContorlService </title>
<path fill="none" stroke="black" stroke-dasharray="5,2" d="M950.13,-168C903.99,-168 838,-168 838,-168 838,-168 838,-132.17 838,-132.17"/>
<polygon fill="black" stroke="black" points="841.5,-132.17 838,-122.17 834.5,-132.17 841.5,-132.17"/>
</g>
<!-- AuthService  -->
<g id="node9" class="node">
<title>AuthService </title>
<polygon fill="#fb8072" stroke="black" points="747.98,-122 658.02,-122 658.02,-86 747.98,-86 747.98,-122"/>
<text text-anchor="middle" x="703" y="-99.8" font-family="Times,serif" font-size="14.00">AuthService </text>
</g>
<!-- AuthModule&#45;&gt;AuthService  -->
<g id="edge9" class="edge">
<title>AuthModule&#45;&gt;AuthService </title>
<path fill="none" stroke="black" stroke-dasharray="5,2" d="M950.43,-173C869.26,-173 703,-173 703,-173 703,-173 703,-132.13 703,-132.13"/>
<polygon fill="black" stroke="black" points="706.5,-132.13 703,-122.13 699.5,-132.13 706.5,-132.13"/>
</g>
<!-- DatabaseConfigModule -->
<g id="node3" class="node">
<title>DatabaseConfigModule</title>
<polygon fill="#8dd3c7" stroke="black" points="1354.74,-122 1351.74,-126 1330.74,-126 1327.74,-122 1205.26,-122 1205.26,-86 1354.74,-86 1354.74,-122"/>
<text text-anchor="middle" x="1280" y="-99.8" font-family="Times,serif" font-size="14.00">DatabaseConfigModule</text>
</g>
<!-- DatabaseConfigModule&#45;&gt;AppModule -->
<g id="edge3" class="edge">
<title>DatabaseConfigModule&#45;&gt;AppModule</title>
<path fill="none" stroke="black" d="M1226.98,-122.18C1226.98,-122.18 1226.98,-284.71 1226.98,-284.71"/>
<polygon fill="black" stroke="black" points="1223.48,-284.71 1226.98,-294.71 1230.48,-284.71 1223.48,-284.71"/>
</g>
<!-- HealthModule -->
<g id="node4" class="node">
<title>HealthModule</title>
<polygon fill="#8dd3c7" stroke="black" points="1046.37,-122 1043.37,-126 1022.37,-126 1019.37,-122 949.63,-122 949.63,-86 1046.37,-86 1046.37,-122"/>
<text text-anchor="middle" x="998" y="-99.8" font-family="Times,serif" font-size="14.00">HealthModule</text>
</g>
<!-- HealthModule&#45;&gt;AppModule -->
<g id="edge4" class="edge">
<title>HealthModule&#45;&gt;AppModule</title>
<path fill="none" stroke="black" d="M1042.1,-122.18C1042.1,-173.03 1042.1,-313 1042.1,-313 1042.1,-313 1154.96,-313 1154.96,-313"/>
<polygon fill="black" stroke="black" points="1154.96,-316.5 1164.96,-313 1154.96,-309.5 1154.96,-316.5"/>
</g>
<!-- TodosModule&#45;&gt;AppModule -->
<g id="edge5" class="edge">
<title>TodosModule&#45;&gt;AppModule</title>
<path fill="none" stroke="black" d="M1171.72,-263.22C1171.72,-263.22 1171.72,-284.73 1171.72,-284.73"/>
<polygon fill="black" stroke="black" points="1168.22,-284.73 1171.72,-294.73 1175.22,-284.73 1168.22,-284.73"/>
</g>
<!-- TodosService  -->
<g id="node14" class="node">
<title>TodosService </title>
<polygon fill="#fb8072" stroke="black" points="1753.48,-331 1656.52,-331 1656.52,-295 1753.48,-295 1753.48,-331"/>
<text text-anchor="middle" x="1705" y="-308.8" font-family="Times,serif" font-size="14.00">TodosService </text>
</g>
<!-- TodosModule&#45;&gt;TodosService  -->
<g id="edge15" class="edge">
<title>TodosModule&#45;&gt;TodosService </title>
<path fill="none" stroke="black" stroke-dasharray="5,2" d="M1178.19,-239C1314.93,-239 1701.72,-239 1701.72,-239 1701.72,-239 1701.72,-284.71 1701.72,-284.71"/>
<polygon fill="black" stroke="black" points="1698.22,-284.71 1701.72,-294.71 1705.22,-284.71 1698.22,-284.71"/>
</g>
<!-- UsersModule -->
<g id="node6" class="node">
<title>UsersModule</title>
<polygon fill="#8dd3c7" stroke="black" points="1464.92,-122 1461.92,-126 1440.92,-126 1437.92,-122 1373.08,-122 1373.08,-86 1464.92,-86 1464.92,-122"/>
<text text-anchor="middle" x="1419" y="-99.8" font-family="Times,serif" font-size="14.00">UsersModule</text>
</g>
<!-- UsersModule&#45;&gt;AuthModule -->
<g id="edge7" class="edge">
<title>UsersModule&#45;&gt;AuthModule</title>
<path fill="none" stroke="black" d="M1396.14,-122.31C1396.14,-142.15 1396.14,-171 1396.14,-171 1396.14,-171 1047.8,-171 1047.8,-171"/>
<polygon fill="black" stroke="black" points="1047.8,-167.5 1037.8,-171 1047.8,-174.5 1047.8,-167.5"/>
</g>
<!-- UsersModule&#45;&gt;AppModule -->
<g id="edge6" class="edge">
<title>UsersModule&#45;&gt;AppModule</title>
<path fill="none" stroke="black" d="M1419,-122.18C1419,-173.03 1419,-313 1419,-313 1419,-313 1258.88,-313 1258.88,-313"/>
<polygon fill="black" stroke="black" points="1258.88,-309.5 1248.88,-313 1258.88,-316.5 1258.88,-309.5"/>
</g>
<!-- UsersService  -->
<g id="node16" class="node">
<title>UsersService </title>
<polygon fill="#fb8072" stroke="black" points="1746.85,-198 1653.15,-198 1653.15,-162 1746.85,-162 1746.85,-198"/>
<text text-anchor="middle" x="1700" y="-175.8" font-family="Times,serif" font-size="14.00">UsersService </text>
</g>
<!-- UsersModule&#45;&gt;UsersService  -->
<g id="edge17" class="edge">
<title>UsersModule&#45;&gt;UsersService </title>
<path fill="none" stroke="black" stroke-dasharray="5,2" d="M1464.77,-104C1544.4,-104 1700,-104 1700,-104 1700,-104 1700,-151.99 1700,-151.99"/>
<polygon fill="black" stroke="black" points="1696.5,-151.99 1700,-161.99 1703.5,-151.99 1696.5,-151.99"/>
</g>
<!-- AccessContorlService -->
<g id="node10" class="node">
<title>AccessContorlService</title>
<ellipse fill="#fdb462" stroke="black" cx="257" cy="-104" rx="96.68" ry="18"/>
<text text-anchor="middle" x="257" y="-99.8" font-family="Times,serif" font-size="14.00">AccessContorlService</text>
</g>
<!-- AccessContorlService&#45;&gt;AuthModule -->
<g id="edge10" class="edge">
<title>AccessContorlService&#45;&gt;AuthModule</title>
<path fill="none" stroke="black" d="M257,-122.23C257,-146.93 257,-188 257,-188 257,-188 940.38,-188 940.38,-188"/>
<polygon fill="black" stroke="black" points="940.38,-191.5 950.38,-188 940.38,-184.5 940.38,-191.5"/>
</g>
<!-- AuthService -->
<g id="node11" class="node">
<title>AuthService</title>
<ellipse fill="#fdb462" stroke="black" cx="83" cy="-104" rx="59.11" ry="18"/>
<text text-anchor="middle" x="83" y="-99.8" font-family="Times,serif" font-size="14.00">AuthService</text>
</g>
<!-- AuthService&#45;&gt;AuthModule -->
<g id="edge11" class="edge">
<title>AuthService&#45;&gt;AuthModule</title>
<path fill="none" stroke="black" d="M83,-122.01C83,-148.02 83,-193 83,-193 83,-193 940.37,-193 940.37,-193"/>
<polygon fill="black" stroke="black" points="940.37,-196.5 950.37,-193 940.37,-189.5 940.37,-196.5"/>
</g>
<!-- JwtStrategy -->
<g id="node12" class="node">
<title>JwtStrategy</title>
<ellipse fill="#fdb462" stroke="black" cx="577" cy="-104" rx="56.76" ry="18"/>
<text text-anchor="middle" x="577" y="-99.8" font-family="Times,serif" font-size="14.00">JwtStrategy</text>
</g>
<!-- JwtStrategy&#45;&gt;AuthModule -->
<g id="edge12" class="edge">
<title>JwtStrategy&#45;&gt;AuthModule</title>
<path fill="none" stroke="black" d="M577,-122.29C577,-144.21 577,-178 577,-178 577,-178 940.16,-178 940.16,-178"/>
<polygon fill="black" stroke="black" points="940.16,-181.5 950.16,-178 940.16,-174.5 940.16,-181.5"/>
</g>
<!-- LocalStrategy -->
<g id="node13" class="node">
<title>LocalStrategy</title>
<ellipse fill="#fdb462" stroke="black" cx="437" cy="-104" rx="65.41" ry="18"/>
<text text-anchor="middle" x="437" y="-99.8" font-family="Times,serif" font-size="14.00">LocalStrategy</text>
</g>
<!-- LocalStrategy&#45;&gt;AuthModule -->
<g id="edge13" class="edge">
<title>LocalStrategy&#45;&gt;AuthModule</title>
<path fill="none" stroke="black" d="M437,-122.32C437,-145.66 437,-183 437,-183 437,-183 940.29,-183 940.29,-183"/>
<polygon fill="black" stroke="black" points="940.29,-186.5 950.29,-183 940.29,-179.5 940.29,-186.5"/>
</g>
<!-- TodosService -->
<g id="node15" class="node">
<title>TodosService</title>
<ellipse fill="#fdb462" stroke="black" cx="1569" cy="-313" rx="64.26" ry="18"/>
<text text-anchor="middle" x="1569" y="-308.8" font-family="Times,serif" font-size="14.00">TodosService</text>
</g>
<!-- TodosService&#45;&gt;TodosModule -->
<g id="edge16" class="edge">
<title>TodosService&#45;&gt;TodosModule</title>
<path fill="none" stroke="black" d="M1567,-294.73C1567,-276.44 1567,-251 1567,-251 1567,-251 1188.07,-251 1188.07,-251"/>
<polygon fill="black" stroke="black" points="1188.07,-247.5 1178.07,-251 1188.07,-254.5 1188.07,-247.5"/>
</g>
<!-- UsersService -->
<g id="node17" class="node">
<title>UsersService</title>
<ellipse fill="#fdb462" stroke="black" cx="1567" cy="-180" rx="61.95" ry="18"/>
<text text-anchor="middle" x="1567" y="-175.8" font-family="Times,serif" font-size="14.00">UsersService</text>
</g>
<!-- UsersService&#45;&gt;UsersModule -->
<g id="edge18" class="edge">
<title>UsersService&#45;&gt;UsersModule</title>
<path fill="none" stroke="black" d="M1513.2,-189C1479.28,-189 1441.86,-189 1441.86,-189 1441.86,-189 1441.86,-132.03 1441.86,-132.03"/>
<polygon fill="black" stroke="black" points="1445.36,-132.03 1441.86,-122.03 1438.36,-132.03 1445.36,-132.03"/>
</g>
</g>
</svg>
